# Blender v2.79 (sub 0) OBJ File: ''
# www.blender.org
mtllib Hut1.mtl
o Cube
v -3.023303 -0.000001 1.998955
v -3.223303 3.395567 2.198955
v -3.023303 -0.000001 -1.998955
v -3.223303 2.838120 -2.198955
v 2.353560 0.781480 2.022079
v 3.223303 3.395567 2.198955
v 3.023303 -0.000001 -1.998955
v 3.223303 2.838120 -2.198955
v -3.129397 0.125808 -2.198955
v -3.151915 0.071387 2.198955
v 3.223303 0.116656 -2.082298
v 3.223303 0.116656 2.082298
v -3.023303 2.639999 -1.998955
v -3.023303 2.639999 1.998955
v 3.023303 2.639999 -1.998955
v 3.023303 2.639999 1.998955
v -3.151915 3.153637 2.198955
v -3.129397 2.582228 -2.198955
v 3.223303 2.592121 -2.082298
v 3.223303 3.093482 2.082298
v -3.445335 3.225025 2.405252
v -3.428472 3.395567 2.422030
v -3.445715 2.838120 -2.404842
v 3.445715 2.838120 -2.404842
v 3.428472 3.395567 2.422030
v -3.428953 2.695576 -2.421587
v 3.428953 2.695576 -2.421587
v 3.445335 3.225025 2.405252
v -0.567930 0.125808 -2.198955
v -1.915324 0.125808 -2.198955
v -1.921522 2.838120 -2.198955
v -0.567670 2.838120 -2.198955
v -1.992910 0.071387 2.198955
v -0.496282 0.071387 2.198955
v -0.567670 3.395567 2.198955
v -1.921522 3.395567 2.198955
v -0.609672 -0.000001 -1.998955
v -1.879520 -0.000001 -1.998955
v -1.879520 -0.000001 1.998955
v 0.290812 0.781480 2.022079
v -0.609672 2.639999 -1.998955
v -1.879520 2.639999 -1.998955
v -1.879520 2.639999 1.998955
v -0.609672 2.639999 1.998955
v -0.567670 3.153637 2.198955
v -1.921522 3.153637 2.198955
v -1.915323 2.582228 -2.198955
v -0.567930 2.582228 -2.198955
v -1.968231 2.838120 -2.404842
v -0.520961 2.838120 -2.404842
v -0.524582 3.395567 2.422030
v -1.964610 3.395567 2.422030
v -0.521041 3.225025 2.405252
v -1.968151 3.225025 2.405252
v -1.964711 2.695576 -2.421587
v -0.524481 2.695576 -2.421587
v -3.129397 1.963086 -2.198955
v 3.223303 1.975547 -2.082298
v 3.223303 2.363573 2.082298
v -3.151915 2.363573 2.198955
v -0.496282 2.434961 2.198955
v -1.992911 2.434961 2.198955
v -3.023303 2.363569 -1.998955
v 2.353560 2.154389 2.022079
v 3.023303 2.363569 -1.998955
v -3.023303 2.363569 1.998955
v -1.879520 2.363569 -1.998955
v -0.609672 2.363569 -1.998955
v 0.290812 2.154389 2.022079
v -1.879520 2.363569 1.998955
v 3.123459 1.963086 -2.198955
v 3.123459 0.125808 -2.198955
v 3.151915 0.071387 2.198955
v 3.151915 2.363573 2.198955
v 3.123459 2.582228 -2.198955
v 3.151915 3.153637 2.198955
v 3.169951 1.975547 -2.082298
v 3.169951 2.363573 2.082298
v 3.169951 0.116656 -2.082298
v 3.169951 0.116656 2.082298
v 3.169951 2.592121 -2.082298
v 3.169951 3.093482 2.082298
v 3.223303 2.363573 2.198955
v 3.223303 -0.000001 2.198955
v -0.567670 -0.000001 2.198955
v -3.223303 2.363573 2.124003
v -3.223303 3.140508 2.124003
v -1.921522 3.225025 2.198955
v -3.223303 0.074952 2.124003
v -1.921522 -0.000001 2.198955
v 3.223303 3.225025 2.198955
v -0.567670 3.225025 2.198955
v -0.567670 2.363573 2.198955
v -1.921522 2.363573 2.198955
v -0.567670 3.153637 2.143013
v 0.290812 2.154389 2.143010
v -1.921522 3.153637 2.143013
v -1.992911 2.434959 2.143010
v 2.353558 2.154388 2.143010
v -3.151915 2.363573 2.143013
v 2.353558 0.781480 2.143010
v 0.290812 0.781480 2.143010
v -3.151915 3.153637 2.143013
v -3.151915 0.071387 2.143013
v -1.992910 0.071387 2.143013
v 3.151915 3.153637 2.143013
v -3.223303 1.975547 -2.124003
v -3.223303 0.074952 -2.124003
v -1.921522 -0.000001 -2.198955
v 3.223303 1.975547 -2.198955
v 3.223303 -0.000001 -2.198955
v -0.567670 2.695576 -2.198955
v 3.223303 2.695576 -2.198955
v -0.567670 -0.000001 -2.198955
v -3.223303 2.629106 -2.124003
v -1.921522 2.695576 -2.198955
v -1.915324 1.963086 -2.124590
v -1.915324 0.125808 -2.124590
v -0.567930 1.963086 -2.124590
v -0.567930 0.125808 -2.124590
v -1.915323 2.582228 -2.124590
v -0.567930 2.582228 -2.124590
v -3.129397 1.963086 -2.124590
v 3.123459 1.963086 -2.124590
v -3.129397 0.125808 -2.124590
v 3.123459 0.125808 -2.124590
v 3.123459 2.582228 -2.124590
v -3.129397 2.582228 -2.124590
v -3.223303 -0.000001 -2.198955
v -3.223303 -0.000001 2.198955
v -3.223303 1.975547 -2.198955
v -3.223303 2.363573 2.198955
v -3.223303 3.225025 2.198955
v -3.223303 2.695576 -2.198955
v -3.180424 2.363573 2.124003
v -3.180424 1.975547 -2.124003
v -3.180424 0.074952 -2.124003
v -3.180424 0.074952 2.124003
v -3.180424 3.140508 2.124003
v -3.180424 2.629106 -2.124003
v -0.609672 -0.000001 1.998955
v 3.023303 -0.000001 1.998955
v 3.023303 2.363569 1.998955
v -0.609672 2.363569 1.998955
v 3.151915 2.363573 2.143013
v -0.496282 2.434961 2.143013
v 3.151915 0.071387 2.143013
v -0.496282 0.071387 2.143013
v 2.304054 0.823226 2.022078
v 0.340319 0.823226 2.022079
v 2.304051 2.104533 2.022078
v 0.340320 2.104529 2.022075
v 0.340320 2.104529 2.143005
v 2.304049 2.104532 2.143009
v 2.304050 0.823227 2.143009
v 0.340322 0.823226 2.143010
v 2.353557 2.154387 2.170608
v 0.290813 2.154389 2.170608
v 2.353557 0.781480 2.170608
v 0.290813 0.781480 2.170608
v 2.304049 2.104532 2.170606
v 0.340321 2.104529 2.170603
v 2.304050 0.823227 2.170607
v 0.340322 0.823227 2.170608
v 0.290811 0.781480 1.997241
v 2.353560 0.781480 1.997241
v 2.353560 2.154390 1.997241
v 0.290811 2.154390 1.997241
v 0.340319 2.104530 1.997237
v 2.304051 2.104534 1.997240
v 0.340319 0.823226 1.997241
v 2.304054 0.823226 1.997240
vn 0.0000 -1.0000 0.0000
vn 0.0000 1.0000 0.0000
vn -0.0048 0.9928 -0.1200
vn 0.0000 0.9921 -0.1257
vn -1.0000 0.0000 0.0000
vn 1.0000 0.0000 0.0000
vn 0.0000 0.0000 -1.0000
vn 0.0000 0.0000 1.0000
vn 0.0000 -0.9928 0.1195
vn -1.0000 0.0003 0.0001
vn 0.0000 0.1167 -0.9932
vn 1.0000 0.0003 0.0001
vn 0.0000 -0.0979 0.9952
vn -0.0044 -0.9935 0.1140
vn 0.0044 -0.9935 0.1140
vn 0.0048 0.9928 -0.1200
vn 0.9787 0.0000 0.2055
vn -0.9787 0.0000 0.2055
vn 0.0000 0.0296 -0.9996
vn -0.0345 0.0000 -0.9994
vn 0.0257 0.0000 -0.9997
vn 0.0000 -0.1099 -0.9939
vn 0.7096 0.7046 0.0000
vn -0.7096 0.7046 -0.0000
vn 0.0001 0.0000 1.0000
vn -0.0000 -0.0001 1.0000
vn 0.0000 0.0001 -1.0000
usemtl None
s off
f 92//1 91//1 28//1 53//1
f 116//1 134//1 26//1 55//1
f 36//2 2//2 22//2 52//2
f 2//3 4//3 23//3 22//3
f 31//4 4//4 2//4 36//4
f 3//1 1//1 130//1 129//1
f 38//1 3//1 129//1 109//1
f 142//1 7//1 111//1 84//1
f 141//1 142//1 84//1 85//1
f 65//5 143//5 16//5 15//5
f 41//1 15//1 16//1 44//1
f 66//6 63//6 13//6 14//6
f 70//7 66//7 14//7 43//7
f 68//8 65//8 15//8 41//8
f 45//1 46//1 97//1 95//1
f 19//9 20//9 82//9 81//9
f 18//1 47//1 121//1 128//1
f 87//9 115//9 140//9 139//9
f 21//10 22//10 23//10 26//10
f 56//11 50//11 24//11 27//11
f 27//12 24//12 25//12 28//12
f 54//13 52//13 22//13 21//13
f 32//2 8//2 24//2 50//2
f 134//14 133//14 21//14 26//14
f 91//15 113//15 27//15 28//15
f 8//16 6//16 25//16 24//16
f 4//2 31//2 49//2 23//2
f 31//2 32//2 50//2 49//2
f 28//13 25//13 51//13 53//13
f 53//13 51//13 52//13 54//13
f 26//11 23//11 49//11 55//11
f 55//11 49//11 50//11 56//11
f 75//5 71//5 124//5 127//5
f 71//5 72//5 126//5 124//5
f 74//5 76//5 106//5 145//5
f 17//6 60//6 100//6 103//6
f 63//8 67//8 42//8 13//8
f 67//8 68//8 41//8 42//8
f 143//7 144//7 44//7 16//7
f 13//1 42//1 43//1 14//1
f 42//1 41//1 44//1 43//1
f 1//1 39//1 90//1 130//1
f 7//1 37//1 114//1 111//1
f 37//1 38//1 109//1 114//1
f 8//4 32//4 35//4 6//4
f 32//4 31//4 36//4 35//4
f 6//2 35//2 51//2 25//2
f 35//2 36//2 52//2 51//2
f 113//1 112//1 56//1 27//1
f 112//1 116//1 55//1 56//1
f 133//1 88//1 54//1 21//1
f 88//1 92//1 53//1 54//1
f 76//1 45//1 95//1 106//1
f 29//2 30//2 118//2 120//2
f 57//6 18//6 128//6 123//6
f 89//7 86//7 135//7 138//7
f 30//2 9//2 125//2 118//2
f 20//7 59//7 78//7 82//7
f 33//5 62//5 98//5 105//5
f 38//8 37//8 68//8 67//8
f 3//8 38//8 67//8 63//8
f 37//8 7//8 65//8 68//8
f 39//7 1//7 66//7 70//7
f 1//6 3//6 63//6 66//6
f 7//5 142//5 143//5 65//5
f 43//7 44//7 144//7 70//7
f 94//17 90//17 39//17 70//17
f 94//1 70//1 144//1 93//1
f 93//18 144//18 141//18 85//18
f 58//6 11//6 111//6 110//6
f 11//6 12//6 84//6 111//6
f 12//6 59//6 83//6 84//6
f 20//6 19//6 113//6 91//6
f 19//6 58//6 110//6 113//6
f 59//6 20//6 91//6 83//6
f 77//6 81//6 82//6 78//6
f 79//6 77//6 78//6 80//6
f 12//2 11//2 79//2 80//2
f 58//8 19//8 81//8 77//8
f 59//7 12//7 80//7 78//7
f 11//8 58//8 77//8 79//8
f 74//8 73//8 84//8 83//8
f 73//8 34//8 85//8 84//8
f 60//8 17//8 133//8 132//8
f 17//8 46//8 88//8 133//8
f 33//8 10//8 130//8 90//8
f 45//8 76//8 91//8 92//8
f 46//8 45//8 92//8 88//8
f 34//8 61//8 93//8 85//8
f 62//8 33//8 90//8 94//8
f 76//8 74//8 83//8 91//8
f 10//8 60//8 132//8 130//8
f 61//8 62//8 94//8 93//8
f 98//8 97//8 103//8 100//8
f 145//8 106//8 95//8 146//8
f 146//8 95//8 97//8 98//8
f 105//8 98//8 100//8 104//8
f 46//1 17//1 103//1 97//1
f 60//6 10//6 104//6 100//6
f 73//5 74//5 145//5 147//5
f 61//6 34//6 148//6 146//6
f 10//2 33//2 105//2 104//2
f 62//2 61//2 146//2 98//2
f 34//2 73//2 147//2 148//2
f 57//7 9//7 129//7 131//7
f 9//7 30//7 109//7 129//7
f 72//7 71//7 110//7 111//7
f 75//7 48//7 112//7 113//7
f 29//7 72//7 111//7 114//7
f 30//7 29//7 114//7 109//7
f 47//7 18//7 134//7 116//7
f 48//7 47//7 116//7 112//7
f 18//7 57//7 131//7 134//7
f 71//7 75//7 113//7 110//7
f 119//7 122//7 127//7 124//7
f 123//7 128//7 121//7 117//7
f 117//7 121//7 122//7 119//7
f 118//7 117//7 119//7 120//7
f 125//7 123//7 117//7 118//7
f 120//7 119//7 124//7 126//7
f 48//1 75//1 127//1 122//1
f 9//6 57//6 123//6 125//6
f 47//1 48//1 122//1 121//1
f 72//2 29//2 120//2 126//2
f 89//5 108//5 129//5 130//5
f 108//5 107//5 131//5 129//5
f 87//5 86//5 132//5 133//5
f 115//5 87//5 133//5 134//5
f 107//5 115//5 134//5 131//5
f 86//5 89//5 130//5 132//5
f 135//5 139//5 140//5 136//5
f 138//5 135//5 136//5 137//5
f 107//8 108//8 137//8 136//8
f 115//8 107//8 136//8 140//8
f 86//7 87//7 139//7 135//7
f 108//2 89//2 138//2 137//2
f 40//19 5//19 142//19 141//19
f 5//20 64//20 143//20 142//20
f 69//21 40//21 141//21 144//21
f 64//22 69//22 144//22 143//22
f 96//8 99//8 145//8 146//8
f 99//8 101//8 147//8 145//8
f 101//8 102//8 148//8 147//8
f 102//8 96//8 146//8 148//8
f 154//5 155//5 163//5 161//5
f 149//5 151//5 170//5 172//5
f 64//6 5//6 166//6 167//6
f 149//2 150//2 156//2 155//2
f 150//6 152//6 153//6 156//6
f 149//5 155//5 154//5 151//5
f 101//6 99//6 157//6 159//6
f 151//1 152//1 169//1 170//1
f 69//23 96//23 153//23 152//23
f 156//6 153//6 162//6 164//6
f 99//24 64//24 151//24 154//24
f 69//2 64//2 167//2 168//2
f 96//5 102//5 160//5 158//5
f 153//1 152//1 151//1 154//1
f 158//25 160//25 164//25 162//25
f 157//26 158//26 162//26 161//26
f 159//8 157//8 161//8 163//8
f 160//8 159//8 163//8 164//8
f 102//1 101//1 159//1 160//1
f 155//2 156//2 164//2 163//2
f 99//2 96//2 158//2 157//2
f 153//1 154//1 161//1 162//1
f 166//7 165//7 171//7 172//7
f 168//27 167//27 170//27 169//27
f 167//7 166//7 172//7 170//7
f 165//7 168//7 169//7 171//7
f 40//5 69//5 168//5 165//5
f 152//6 150//6 171//6 169//6
f 5//1 40//1 165//1 166//1
f 150//2 149//2 172//2 171//2
